<?xml version="1.0" encoding="UTF-8" ?>
<!DOCTYPE svg PUBLIC "-//W3C//DTD SVG 1.1//EN" "http://www.w3.org/Graphics/SVG/1.1/DTD/svg11.dtd">
<svg width="927pt" height="573pt" viewBox="0 0 927 573" version="1.1" xmlns="http://www.w3.org/2000/svg">
<g id="#ffffffff">
</g>
<g id="#929395ff">
<path fill="#929395" opacity="1.00" d=" M 79.60 7.59 C 93.46 4.28 107.78 2.98 122.01 3.39 C 128.51 3.48 135.03 3.00 141.52 3.71 C 147.52 4.36 153.54 2.54 159.52 3.74 C 165.33 5.06 171.20 3.00 177.04 3.94 C 183.29 4.81 189.61 4.00 195.89 4.47 C 202.37 4.95 208.89 3.71 215.34 4.83 C 221.24 5.87 227.16 3.69 233.06 4.96 C 243.35 5.70 253.69 5.45 263.99 5.44 C 271.30 6.52 278.67 5.41 285.99 6.19 C 301.66 6.50 317.33 6.89 333.01 6.89 C 346.10 7.82 359.24 6.87 372.34 7.70 C 377.39 8.20 382.46 7.00 387.50 7.70 C 400.62 9.42 413.93 7.32 427.05 9.03 C 431.13 9.56 435.20 8.24 439.29 8.79 C 446.51 9.90 453.84 8.87 461.07 9.94 C 465.41 10.65 470.18 8.82 474.20 11.02 C 468.64 11.35 463.07 10.80 457.52 11.32 C 450.98 11.90 444.49 10.52 437.96 10.72 C 425.37 10.82 412.78 10.34 400.20 10.31 C 389.47 9.31 378.70 9.77 367.95 9.61 C 351.95 9.14 335.96 8.37 319.95 8.56 C 314.62 8.67 309.34 7.76 304.02 7.82 C 290.68 8.05 277.34 7.29 263.99 7.51 C 250.39 6.58 236.76 6.99 223.14 6.48 C 218.44 6.23 213.74 6.64 209.04 6.51 C 194.04 5.31 178.97 6.12 163.95 5.23 C 155.95 5.71 147.98 4.71 139.99 5.06 C 133.65 5.41 127.32 4.59 120.99 5.02 C 110.46 5.70 99.83 5.32 89.42 7.26 C 68.90 10.09 48.42 16.96 32.16 30.13 C 11.85 45.92 0.95 72.84 4.38 98.32 C 5.06 106.21 4.18 114.15 4.99 122.04 C 5.57 127.53 5.76 133.05 5.41 138.56 C 4.93 146.72 6.33 154.84 6.18 163.00 C 6.26 169.13 5.44 175.37 6.71 181.43 C 8.05 187.63 15.44 190.51 15.97 197.03 C 17.41 210.17 17.50 223.51 20.41 236.45 C 21.55 241.72 22.08 247.13 23.66 252.31 C 24.80 256.08 26.11 259.94 25.80 263.95 C 25.40 270.84 22.47 277.70 24.37 284.62 C 25.77 289.61 27.19 295.18 31.46 298.54 C 33.26 300.07 35.11 301.53 36.82 303.16 C 32.28 301.93 28.41 298.84 26.52 294.50 C 22.35 285.70 20.17 274.75 24.63 265.66 C 25.78 263.40 24.98 260.85 24.31 258.58 C 22.59 253.39 20.05 248.42 19.42 242.92 C 17.76 228.31 16.42 213.66 15.31 199.00 C 15.08 191.78 6.15 188.79 5.56 181.65 C 4.47 171.48 4.07 161.24 4.17 151.02 C 4.61 142.65 2.86 134.36 3.28 125.98 C 3.70 114.84 2.49 103.75 1.63 92.66 C 1.87 70.27 10.59 47.57 27.35 32.37 C 41.78 19.04 60.68 11.80 79.60 7.59 Z" />
</g>
<g id="#2c2e35ff">
<path fill="#2c2e35" opacity="1.00" d=" M 89.42 7.26 C 99.83 5.32 110.46 5.70 120.99 5.02 C 127.32 4.59 133.65 5.41 139.99 5.06 C 147.98 4.71 155.95 5.71 163.95 5.23 C 178.97 6.12 194.04 5.31 209.04 6.51 C 213.74 6.64 218.44 6.23 223.14 6.48 C 236.76 6.99 250.39 6.58 263.99 7.51 C 277.34 7.29 290.68 8.05 304.02 7.82 C 309.34 7.76 314.62 8.67 319.95 8.56 C 335.96 8.37 351.95 9.14 367.95 9.61 C 378.70 9.77 389.47 9.31 400.20 10.31 C 412.78 10.34 425.37 10.82 437.96 10.72 C 444.49 10.52 450.98 11.90 457.52 11.32 C 463.07 10.80 468.64 11.35 474.20 11.02 C 482.14 10.18 490.05 11.63 498.00 11.35 C 512.65 11.50 527.31 11.44 541.96 11.65 C 555.56 13.55 569.35 11.48 582.97 13.21 C 595.32 13.67 607.70 13.16 620.04 14.03 C 633.66 15.15 647.37 14.05 660.98 15.21 C 676.33 15.50 691.69 15.47 707.05 15.51 C 725.29 17.22 743.66 16.15 761.95 16.64 C 771.59 17.91 781.34 17.39 791.02 18.06 C 797.67 18.59 804.35 18.32 811.01 18.44 C 818.03 18.67 824.99 17.25 832.01 17.61 C 841.52 18.22 851.17 18.44 860.32 21.42 C 860.08 21.83 859.85 22.23 859.63 22.63 C 862.81 23.04 866.03 23.39 869.13 24.27 C 869.02 24.71 868.92 25.15 868.84 25.59 C 870.61 26.12 872.51 26.32 874.17 27.22 C 881.15 30.80 888.66 34.07 893.88 40.16 C 896.62 43.44 900.76 45.37 902.85 49.23 C 905.16 53.14 908.89 56.04 910.79 60.23 C 913.17 65.49 916.68 70.21 918.39 75.77 C 922.32 87.80 925.71 100.25 925.56 113.01 C 925.52 122.66 925.66 132.31 925.52 141.96 C 925.54 149.33 923.95 156.63 924.72 164.01 C 924.36 162.34 924.03 160.67 923.69 159.00 C 923.46 160.22 923.23 161.45 923.01 162.67 C 920.90 173.25 920.23 184.05 918.91 194.74 C 916.32 221.91 911.95 248.86 909.40 276.03 C 905.24 311.34 902.46 346.82 897.30 382.01 C 894.57 405.59 892.48 429.25 888.98 452.72 C 887.21 466.91 886.86 481.35 883.16 495.23 C 875.44 520.67 856.33 541.91 832.73 553.79 C 823.83 558.41 814.27 561.47 804.84 564.78 L 804.00 564.97 C 796.97 565.58 790.19 567.62 783.19 568.43 C 769.19 569.93 755.04 569.61 741.02 568.71 C 736.62 568.70 732.21 568.92 727.84 568.34 C 717.84 567.08 707.80 566.10 697.75 565.39 C 661.43 561.78 625.02 559.10 588.68 555.71 C 579.81 554.76 570.88 554.88 562.00 554.14 C 534.23 551.59 506.42 549.44 478.66 546.70 C 457.74 545.34 436.93 542.59 415.97 541.75 C 368.56 538.04 321.22 533.54 273.83 529.59 C 251.25 527.50 228.59 526.41 206.03 524.08 C 176.91 521.70 147.79 519.22 118.68 516.69 C 114.53 516.31 110.26 516.29 106.29 514.87 C 102.99 513.59 101.20 510.25 99.67 507.27 C 94.75 496.63 93.11 484.92 90.54 473.59 C 89.11 466.35 88.89 458.95 87.49 451.71 C 83.16 427.22 82.36 402.29 79.34 377.65 C 78.21 371.82 78.52 365.87 77.93 360.00 C 77.02 350.34 78.20 340.59 76.74 330.98 C 75.59 322.35 75.18 313.65 74.60 304.97 C 74.18 298.31 75.28 291.51 73.60 284.96 C 73.71 288.82 71.65 292.23 71.22 296.01 C 71.02 300.43 67.10 303.34 63.70 305.53 C 56.81 306.00 49.86 305.15 42.97 306.06 C 40.41 306.61 38.46 304.82 36.82 303.16 C 35.11 301.53 33.26 300.07 31.46 298.54 C 27.19 295.18 25.77 289.61 24.37 284.62 C 22.47 277.70 25.40 270.84 25.80 263.95 C 26.11 259.94 24.80 256.08 23.66 252.31 C 22.08 247.13 21.55 241.72 20.41 236.45 C 17.50 223.51 17.41 210.17 15.97 197.03 C 15.44 190.51 8.05 187.63 6.71 181.43 C 5.44 175.37 6.26 169.13 6.18 163.00 C 6.33 154.84 4.93 146.72 5.41 138.56 C 5.76 133.05 5.57 127.53 4.99 122.04 C 4.18 114.15 5.06 106.21 4.38 98.32 C 0.95 72.84 11.85 45.92 32.16 30.13 C 48.42 16.96 68.90 10.09 89.42 7.26 M 88.93 21.84 C 80.26 23.84 71.51 25.40 63.04 28.16 C 63.01 28.69 62.98 29.21 62.95 29.73 C 60.39 30.48 57.63 30.70 55.33 32.16 C 50.08 35.65 43.93 37.85 39.55 42.57 C 33.93 47.44 29.18 53.29 25.97 60.03 C 24.17 64.12 21.22 67.75 20.47 72.25 C 17.09 86.27 18.71 100.79 19.31 115.01 C 19.23 127.00 19.65 138.99 19.50 150.98 C 19.50 155.07 19.39 159.20 20.05 163.25 C 20.64 163.05 21.23 162.86 21.82 162.68 C 21.71 167.46 21.24 172.25 21.55 177.04 C 21.57 179.25 23.54 180.63 24.78 182.23 C 31.65 190.39 39.05 198.07 45.74 206.38 C 51.95 213.18 57.38 220.65 63.65 227.39 C 71.21 234.87 77.19 243.75 84.72 251.26 C 88.69 254.64 87.78 260.38 87.25 264.97 C 85.99 273.00 88.00 280.98 87.98 289.01 C 87.93 296.38 89.87 303.60 89.72 310.98 C 89.64 316.00 90.78 320.95 90.67 325.97 C 90.56 330.05 90.95 334.11 91.46 338.15 C 92.04 356.02 94.00 373.81 95.29 391.65 C 96.25 407.44 98.56 423.12 99.45 438.91 C 100.32 446.66 102.56 454.21 102.94 462.02 C 103.18 466.49 105.38 470.53 105.93 474.95 C 106.72 480.79 108.53 486.41 109.91 492.13 C 110.77 495.78 112.28 499.36 114.76 502.22 C 121.21 504.85 128.29 502.96 135.02 503.74 C 140.31 504.38 145.65 504.61 150.98 504.34 C 149.67 504.80 148.35 505.24 147.04 505.70 C 155.75 504.93 164.39 506.70 173.11 506.50 C 171.41 506.94 169.70 507.35 168.00 507.76 C 173.02 507.11 178.04 507.76 183.03 508.33 C 198.35 509.39 213.60 511.71 228.98 511.63 C 254.01 513.85 279.07 515.61 304.04 518.41 C 319.38 518.63 334.63 520.49 349.92 521.47 C 349.00 521.91 348.08 522.35 347.16 522.79 C 367.77 521.21 388.22 526.77 408.83 525.22 C 407.91 525.64 406.98 526.07 406.07 526.52 C 427.06 527.93 447.98 530.43 469.00 531.41 C 479.05 531.43 488.95 533.98 499.02 533.41 C 497.33 533.82 495.65 534.23 493.98 534.68 C 503.34 533.89 512.64 535.72 522.00 535.52 C 529.05 535.27 536.00 536.61 543.04 536.52 C 537.33 536.83 531.61 536.91 525.94 537.61 C 530.95 537.61 535.97 537.31 540.98 537.62 C 568.31 539.88 595.60 542.77 622.98 544.36 C 633.77 544.40 644.44 546.46 655.23 546.68 C 653.06 546.69 650.92 547.05 648.83 547.56 C 653.87 547.70 658.92 547.96 663.93 548.62 C 687.83 550.90 711.80 552.42 735.66 555.22 C 753.85 556.54 772.22 556.15 790.25 553.17 C 801.70 551.62 812.68 547.73 823.26 543.22 C 829.84 539.63 836.71 536.36 842.41 531.39 C 855.44 520.82 865.42 506.42 870.12 490.27 C 871.55 484.22 873.78 478.30 873.89 472.01 C 875.52 457.01 877.06 442.00 878.63 426.99 C 880.84 410.00 882.02 392.89 884.67 375.96 C 886.95 358.00 888.71 340.00 890.79 322.03 C 893.34 300.28 894.71 278.37 898.33 256.76 C 901.14 231.86 903.93 206.95 906.63 182.03 C 906.95 172.23 909.97 162.79 910.60 153.02 C 912.36 139.46 911.95 125.77 911.48 112.15 C 909.76 98.93 907.60 85.52 901.58 73.47 C 898.51 66.34 893.42 60.40 888.45 54.55 C 875.94 41.66 858.38 34.97 840.87 32.51 C 831.53 32.19 822.15 31.82 812.84 32.80 C 805.69 33.62 798.56 31.69 791.40 32.56 C 782.87 32.35 774.29 32.71 765.83 31.51 C 762.20 31.12 758.64 32.21 755.03 32.05 C 743.73 30.83 732.33 31.40 721.00 31.10 C 711.72 29.86 702.35 30.49 693.03 30.30 C 687.09 30.64 681.23 28.72 675.30 29.61 C 668.86 30.67 662.44 28.82 655.98 29.35 C 647.31 28.98 638.62 29.47 629.99 28.47 C 618.31 27.98 606.56 28.93 594.93 27.48 C 585.95 27.94 576.97 27.20 567.98 27.30 C 560.91 26.79 553.80 27.30 546.73 26.59 C 535.27 25.84 523.73 27.07 512.29 25.76 C 507.65 25.34 502.99 26.04 498.34 25.64 C 485.19 24.76 471.94 26.15 458.84 24.47 C 457.64 24.67 455.41 23.55 455.05 25.30 C 443.71 25.47 432.34 25.43 421.02 24.70 C 409.29 24.54 397.56 24.66 385.84 24.43 C 388.81 23.55 391.94 23.75 395.00 23.56 C 389.68 22.94 384.32 23.82 378.98 23.54 C 365.00 23.18 350.97 24.07 337.04 22.54 C 327.04 22.50 317.03 22.43 307.02 22.41 L 306.59 21.60 C 295.44 20.90 284.20 21.93 273.05 21.07 C 266.41 20.03 259.70 20.52 253.02 20.43 C 238.68 20.27 224.34 20.69 210.02 19.90 C 190.69 19.66 171.36 19.62 152.02 19.58 C 145.91 19.72 139.78 19.16 133.70 19.96 C 118.78 18.88 103.72 19.65 88.93 21.84 M 33.00 215.38 C 32.68 215.54 32.04 215.85 31.71 216.01 C 30.79 222.19 32.45 228.36 33.24 234.47 C 33.94 239.05 33.87 243.88 35.89 248.16 C 37.35 251.31 38.44 254.65 38.87 258.11 C 40.83 266.76 34.56 275.04 37.45 283.66 C 37.56 288.42 42.30 290.31 46.14 291.60 C 50.15 291.99 54.27 292.03 58.25 291.34 C 59.03 288.51 59.68 285.65 60.43 282.82 C 62.08 276.26 60.92 269.43 62.05 262.81 C 62.50 259.22 63.51 255.67 63.35 252.04 C 61.86 247.00 57.67 243.49 54.31 239.67 C 49.96 234.99 46.40 229.62 41.73 225.23 C 38.46 222.27 36.67 217.85 33.00 215.38 Z" />
</g>
<g id="#aaaeb1ff">
<path fill="#aaaeb1" opacity="1.00" d=" M 133.70 19.96 C 139.78 19.16 145.91 19.72 152.02 19.58 C 171.36 19.62 190.69 19.66 210.02 19.90 C 224.34 20.69 238.68 20.27 253.02 20.43 C 259.70 20.52 266.41 20.03 273.05 21.07 C 284.20 21.93 295.44 20.90 306.59 21.60 L 307.02 22.41 C 285.34 22.40 263.66 22.45 241.98 22.21 C 236.86 22.32 231.74 22.80 226.63 22.22 C 216.11 21.11 205.51 22.02 194.95 21.56 C 181.01 20.40 166.99 20.87 153.01 20.65 C 146.57 20.57 140.07 21.17 133.70 19.96 Z" />
</g>
<g id="#98989cff">
<path fill="#98989c" opacity="1.00" d=" M 455.05 25.30 C 455.41 23.55 457.64 24.67 458.84 24.47 C 471.94 26.15 485.19 24.76 498.34 25.64 C 502.99 26.04 507.65 25.34 512.29 25.76 C 523.73 27.07 535.27 25.84 546.73 26.59 C 553.80 27.30 560.91 26.79 567.98 27.30 C 576.97 27.20 585.95 27.94 594.93 27.48 C 606.56 28.93 618.31 27.98 629.99 28.47 C 638.62 29.47 647.31 28.98 655.98 29.35 C 662.44 28.82 668.86 30.67 675.30 29.61 C 681.23 28.72 687.09 30.64 693.03 30.30 C 702.35 30.49 711.72 29.86 721.00 31.10 C 732.33 31.40 743.73 30.83 755.03 32.05 C 758.64 32.21 762.20 31.12 765.83 31.51 C 774.29 32.71 782.87 32.35 791.40 32.56 C 798.56 31.69 805.69 33.62 812.84 32.80 C 822.15 31.82 831.53 32.19 840.87 32.51 C 858.38 34.97 875.94 41.66 888.45 54.55 C 893.42 60.40 898.51 66.34 901.58 73.47 C 907.60 85.52 909.76 98.93 911.48 112.15 C 911.95 125.77 912.36 139.46 910.60 153.02 C 909.97 162.79 906.95 172.23 906.63 182.03 C 903.93 206.95 901.14 231.86 898.33 256.76 C 894.71 278.37 893.34 300.28 890.79 322.03 C 888.71 340.00 886.95 358.00 884.67 375.96 C 882.02 392.89 880.84 410.00 878.63 426.99 C 877.06 442.00 875.52 457.01 873.89 472.01 C 873.78 478.30 871.55 484.22 870.12 490.27 C 865.42 506.42 855.44 520.82 842.41 531.39 C 836.71 536.36 829.84 539.63 823.26 543.22 C 812.68 547.73 801.70 551.62 790.25 553.17 C 772.22 556.15 753.85 556.54 735.66 555.22 C 711.80 552.42 687.83 550.90 663.93 548.62 C 658.92 547.96 653.87 547.70 648.83 547.56 C 650.92 547.05 653.06 546.69 655.23 546.68 C 660.15 546.61 665.08 546.73 670.00 547.18 C 695.68 549.17 721.29 552.05 746.96 554.10 C 763.50 554.74 780.30 554.44 796.46 550.52 C 811.10 547.76 825.10 541.81 837.38 533.38 C 852.60 522.84 863.80 506.83 869.08 489.14 C 872.08 479.02 872.08 468.38 873.28 457.98 C 875.12 440.90 877.09 423.84 879.03 406.77 C 881.21 394.37 882.27 381.81 883.52 369.28 C 885.96 349.21 887.88 329.08 890.24 309.00 C 893.34 287.52 895.86 265.95 897.67 244.32 C 899.10 232.05 900.58 219.78 901.78 207.49 C 903.93 184.88 908.02 162.51 909.93 139.88 C 910.88 122.67 910.65 105.06 905.67 88.42 C 901.10 70.63 889.85 54.42 873.98 44.97 C 860.84 36.92 845.18 34.25 830.01 33.75 C 819.04 34.50 808.04 35.05 797.05 34.48 C 784.92 33.50 772.72 34.27 760.60 33.21 C 755.28 32.67 749.97 33.64 744.67 33.26 C 733.86 32.45 723.03 32.18 712.21 32.45 C 699.93 31.44 687.60 32.07 675.33 31.31 C 669.83 30.71 664.32 31.53 658.82 31.21 C 648.89 30.41 638.93 30.56 628.99 30.55 C 611.42 29.61 593.81 29.58 576.23 29.38 C 571.14 29.06 566.07 28.59 560.97 28.71 C 549.52 28.89 538.08 28.16 526.63 28.22 C 514.80 27.10 502.92 28.00 491.07 27.48 C 478.00 26.45 464.87 26.81 451.78 26.59 C 454.43 26.14 457.10 25.83 459.78 25.47 C 458.20 25.35 456.62 25.32 455.05 25.30 Z" />
<path fill="#98989c" opacity="1.00" d=" M 148.70 84.64 C 153.80 84.61 158.92 85.54 164.06 85.36 C 171.05 86.33 178.08 84.78 185.06 85.89 C 193.70 86.42 202.37 86.70 211.03 86.39 C 222.61 87.48 234.26 87.48 245.88 87.49 C 256.80 88.61 267.79 88.05 278.73 88.55 C 291.44 89.60 304.21 88.99 316.93 89.93 C 334.98 90.16 352.99 91.31 371.05 91.38 C 384.65 92.62 398.34 91.73 411.93 93.05 C 419.31 92.83 426.68 93.43 434.06 93.36 C 445.02 94.51 456.05 93.97 467.06 94.41 C 480.33 95.80 493.73 94.67 507.03 95.87 C 531.34 96.10 555.61 97.62 579.92 97.50 C 592.88 99.42 606.03 97.34 618.99 99.13 C 628.15 99.88 637.37 98.80 646.52 99.72 C 656.86 101.13 667.32 99.77 677.69 100.64 C 689.73 102.33 701.95 100.38 713.99 102.08 C 722.64 102.75 731.33 102.07 739.99 102.48 C 748.15 103.41 756.39 103.58 764.60 103.66 C 771.44 102.70 778.19 104.60 785.03 104.35 C 789.77 104.33 794.52 104.95 799.28 104.54 C 805.22 103.96 811.07 105.68 817.02 105.34 C 823.19 105.59 829.35 105.74 835.52 105.43 C 837.54 107.31 836.46 110.55 836.71 113.02 C 828.11 211.01 818.45 308.91 810.25 406.94 C 809.84 419.24 808.20 431.44 807.33 443.70 C 805.91 459.16 804.50 474.61 803.03 490.06 C 802.55 494.25 802.77 498.57 801.53 502.65 C 785.65 502.48 769.80 500.80 753.96 499.66 C 733.63 498.36 713.35 496.10 692.96 495.62 C 677.63 494.41 662.31 493.16 646.96 492.14 C 629.62 490.87 612.25 490.29 594.95 488.61 C 559.35 485.24 523.63 483.70 488.00 480.93 C 476.35 479.70 464.65 479.19 452.96 478.66 C 431.99 477.16 411.03 475.48 390.04 474.12 C 367.01 473.13 344.07 470.56 321.06 469.17 C 289.83 467.94 258.73 464.41 227.53 462.57 C 215.21 462.42 202.94 461.09 190.65 460.21 C 184.18 459.36 177.59 459.80 171.16 458.60 C 168.54 458.24 168.46 455.05 168.35 453.01 C 168.35 444.60 168.31 436.18 168.03 427.76 C 169.67 437.32 169.79 447.04 170.56 456.68 C 173.96 457.41 177.47 457.37 180.94 457.57 C 205.97 459.14 230.93 461.69 255.97 463.19 C 280.31 464.27 304.58 466.55 328.87 468.35 C 357.29 469.65 385.62 472.32 414.00 474.07 C 441.04 475.20 467.92 478.97 494.99 479.50 C 513.34 480.89 531.70 482.18 550.03 483.93 C 596.68 487.24 643.39 489.79 690.03 493.45 C 704.36 494.41 718.64 496.26 733.02 496.30 C 749.35 497.33 765.65 498.88 781.98 499.99 C 787.90 500.28 793.85 501.59 799.78 500.72 C 800.28 499.01 800.55 497.24 800.77 495.49 C 805.20 441.96 810.62 388.52 815.32 335.02 C 818.40 300.02 821.89 265.05 824.20 229.99 C 827.67 192.99 830.77 155.97 834.33 118.98 C 834.68 115.41 835.29 111.81 834.87 108.22 C 832.09 107.10 829.05 106.86 826.09 106.84 C 815.72 106.88 805.34 106.83 795.00 106.08 C 784.33 105.62 773.63 105.98 762.98 105.06 C 728.64 104.40 694.31 103.03 659.97 102.14 C 646.00 101.02 631.96 102.41 618.02 100.85 C 610.67 100.28 603.31 100.84 595.96 100.59 C 591.29 100.46 586.66 99.75 582.00 99.64 C 573.88 99.42 565.74 100.05 557.64 99.18 C 546.73 97.89 535.71 99.34 524.79 98.11 C 512.90 96.94 500.93 98.07 489.05 96.82 C 479.06 95.89 469.03 96.93 459.05 95.92 C 450.75 95.30 442.43 95.32 434.12 95.44 C 425.29 94.81 416.44 94.23 407.58 94.46 C 400.68 94.73 393.83 93.61 386.94 93.59 C 379.62 93.31 372.28 93.76 364.97 93.09 C 353.99 92.12 342.95 93.08 331.98 92.08 C 321.32 91.25 310.62 91.99 299.97 91.09 C 289.92 90.34 279.83 91.05 269.78 90.24 C 259.41 89.39 248.99 90.06 238.63 89.24 C 228.31 88.44 217.94 89.07 207.63 88.24 C 196.09 87.24 184.48 88.24 172.96 87.02 C 165.18 86.85 157.34 86.24 149.58 86.95 C 149.23 97.09 150.65 107.21 151.38 117.31 C 151.74 127.21 153.00 137.06 152.63 146.99 C 153.54 163.99 155.75 180.96 155.48 198.02 C 156.28 214.69 158.43 231.29 158.66 248.00 C 158.23 260.03 160.21 271.96 160.80 283.96 C 161.88 295.01 161.76 306.12 161.75 317.21 C 159.48 306.20 159.76 294.87 158.58 283.72 C 157.92 275.52 158.90 267.26 157.93 259.07 C 156.73 248.99 156.41 238.85 155.52 228.75 C 155.11 220.29 155.60 211.80 154.69 203.37 C 153.89 190.91 152.15 178.50 152.21 165.99 C 151.83 141.96 148.16 118.10 148.28 94.05 C 148.23 90.92 147.81 87.70 148.70 84.64 Z" />
</g>
<g id="#2f3037ff">
<path fill="#2f3037" opacity="1.00" d=" M 149.58 86.95 C 157.34 86.24 165.18 86.85 172.96 87.02 C 184.48 88.24 196.09 87.24 207.63 88.24 C 217.94 89.07 228.31 88.44 238.63 89.24 C 248.99 90.06 259.41 89.39 269.78 90.24 C 279.83 91.05 289.92 90.34 299.97 91.09 C 310.62 91.99 321.32 91.25 331.98 92.08 C 342.95 93.08 353.99 92.12 364.97 93.09 C 372.28 93.76 379.62 93.31 386.94 93.59 C 393.83 93.61 400.68 94.73 407.58 94.46 C 416.44 94.23 425.29 94.81 434.12 95.44 C 442.43 95.32 450.75 95.30 459.05 95.92 C 469.03 96.93 479.06 95.89 489.05 96.82 C 500.93 98.07 512.90 96.94 524.79 98.11 C 535.71 99.34 546.73 97.89 557.64 99.18 C 565.74 100.05 573.88 99.42 582.00 99.64 C 586.66 99.75 591.29 100.46 595.96 100.59 C 603.31 100.84 610.67 100.28 618.02 100.85 C 631.96 102.41 646.00 101.02 659.97 102.14 C 694.31 103.03 728.64 104.40 762.98 105.06 C 773.63 105.98 784.33 105.62 795.00 106.08 C 805.34 106.83 815.72 106.88 826.09 106.84 C 829.05 106.86 832.09 107.10 834.87 108.22 C 835.29 111.81 834.68 115.41 834.33 118.98 C 830.77 155.97 827.67 192.99 824.20 229.99 C 821.89 265.05 818.40 300.02 815.32 335.02 C 810.62 388.52 805.20 441.96 800.77 495.49 C 800.55 497.24 800.28 499.01 799.78 500.72 C 793.85 501.59 787.90 500.28 781.98 499.99 C 765.65 498.88 749.35 497.33 733.02 496.30 C 718.64 496.26 704.36 494.41 690.03 493.45 C 643.39 489.79 596.68 487.24 550.03 483.93 C 531.70 482.18 513.34 480.89 494.99 479.50 C 467.92 478.97 441.04 475.20 414.00 474.07 C 385.62 472.32 357.29 469.65 328.87 468.35 C 304.58 466.55 280.31 464.27 255.97 463.19 C 230.93 461.69 205.97 459.14 180.94 457.57 C 177.47 457.37 173.96 457.41 170.56 456.68 C 169.79 447.04 169.67 437.32 168.03 427.76 C 166.95 416.42 166.80 405.00 166.38 393.62 C 165.34 383.49 165.14 373.29 163.96 363.17 C 163.02 355.81 163.71 348.38 163.24 341.00 C 162.61 333.08 162.53 325.12 161.75 317.21 C 161.76 306.12 161.88 295.01 160.80 283.96 C 160.21 271.96 158.23 260.03 158.66 248.00 C 158.43 231.29 156.28 214.69 155.48 198.02 C 155.75 180.96 153.54 163.99 152.63 146.99 C 153.00 137.06 151.74 127.21 151.38 117.31 C 150.65 107.21 149.23 97.09 149.58 86.95 M 156.37 93.52 C 155.08 116.09 159.87 138.46 159.35 161.03 C 159.95 175.05 161.31 189.02 162.32 203.01 C 162.06 221.07 164.16 239.04 165.32 257.03 C 165.17 264.04 165.96 271.01 166.27 278.00 C 166.23 290.06 168.31 302.01 168.40 314.07 C 168.43 319.06 169.15 324.01 169.26 328.99 C 169.24 348.05 172.60 366.94 172.33 386.00 C 172.21 392.05 173.18 398.03 173.40 404.07 C 173.74 414.07 175.57 423.99 175.36 434.02 C 175.44 439.75 174.92 445.69 176.80 451.21 C 184.09 452.72 191.63 452.24 199.01 453.15 C 214.71 453.98 230.35 455.71 246.07 456.28 C 274.73 458.18 303.33 460.71 331.98 462.68 C 343.37 462.45 354.66 464.16 366.01 464.81 C 401.63 467.85 437.35 469.44 472.97 472.56 C 493.00 473.24 512.97 475.14 532.96 476.58 C 551.30 477.52 569.62 478.84 587.94 480.14 C 629.07 483.88 670.34 485.81 711.50 489.24 C 734.39 490.06 757.17 492.61 780.04 493.85 C 784.73 494.21 789.52 495.35 794.21 494.26 C 796.62 484.70 796.14 474.66 797.47 464.92 C 801.02 426.34 804.50 387.76 808.08 349.18 C 809.77 328.12 812.26 307.11 813.23 286.00 C 818.06 228.76 823.76 171.59 828.67 114.37 C 824.04 112.42 818.85 113.10 813.95 112.79 C 804.99 112.29 796.01 112.35 787.04 112.16 C 780.32 112.46 773.68 111.04 766.97 111.34 C 758.94 111.12 750.89 111.41 742.90 110.53 C 731.60 109.95 720.25 110.75 709.00 109.47 C 698.33 109.01 687.62 109.62 677.00 108.47 C 666.35 108.04 655.66 108.52 645.04 107.43 C 634.69 107.25 624.32 107.27 613.99 106.46 C 603.32 106.27 592.64 106.26 581.99 105.46 C 572.18 105.25 562.34 105.40 552.55 104.59 C 542.73 104.08 532.87 104.56 523.06 103.79 C 513.37 102.92 503.63 103.68 493.94 103.04 C 483.31 101.84 472.61 102.59 461.95 102.17 C 448.97 100.76 435.84 102.17 422.87 100.49 C 411.91 100.67 400.91 100.60 390.01 99.41 C 381.67 99.84 373.32 99.42 364.99 99.07 C 354.37 97.64 343.63 98.88 332.98 98.06 C 322.04 96.62 310.97 97.91 299.99 97.03 C 289.37 95.63 278.63 96.92 267.99 96.04 C 255.94 94.43 243.73 96.33 231.70 94.61 C 220.75 94.12 209.74 94.93 198.84 93.56 C 193.23 93.73 187.64 93.67 182.04 93.34 C 173.46 93.93 164.85 91.22 156.37 93.52 Z" />
</g>
<g id="#9b9b9fff">
<path fill="#9b9b9f" opacity="1.00" d=" M 156.37 93.52 C 164.85 91.22 173.46 93.93 182.04 93.34 C 187.64 93.67 193.23 93.73 198.84 93.56 C 209.74 94.93 220.75 94.12 231.70 94.61 C 243.73 96.33 255.94 94.43 267.99 96.04 C 278.63 96.92 289.37 95.63 299.99 97.03 C 310.97 97.91 322.04 96.62 332.98 98.06 C 343.63 98.88 354.37 97.64 364.99 99.07 C 373.32 99.42 381.67 99.84 390.01 99.41 C 400.91 100.60 411.91 100.67 422.87 100.49 C 435.84 102.17 448.97 100.76 461.95 102.17 C 472.61 102.59 483.31 101.84 493.94 103.04 C 503.63 103.68 513.37 102.92 523.06 103.79 C 532.87 104.56 542.73 104.08 552.55 104.59 C 562.34 105.40 572.18 105.25 581.99 105.46 C 592.64 106.26 603.32 106.27 613.99 106.46 C 624.32 107.27 634.69 107.25 645.04 107.43 C 655.66 108.52 666.35 108.04 677.00 108.47 C 687.62 109.62 698.33 109.01 709.00 109.47 C 720.25 110.75 731.60 109.95 742.90 110.53 C 750.89 111.41 758.94 111.12 766.97 111.34 C 773.68 111.04 780.32 112.46 787.04 112.16 C 796.01 112.35 804.99 112.29 813.95 112.79 C 818.85 113.10 824.04 112.42 828.67 114.37 C 823.76 171.59 818.06 228.76 813.23 286.00 C 812.26 307.11 809.77 328.12 808.08 349.18 C 804.50 387.76 801.02 426.34 797.47 464.92 C 796.14 474.66 796.62 484.70 794.21 494.26 C 789.52 495.35 784.73 494.21 780.04 493.85 C 757.17 492.61 734.39 490.06 711.50 489.24 C 670.34 485.81 629.07 483.88 587.94 480.14 C 569.62 478.84 551.30 477.52 532.96 476.58 C 512.97 475.14 493.00 473.24 472.97 472.56 C 437.35 469.44 401.63 467.85 366.01 464.81 C 354.66 464.16 343.37 462.45 331.98 462.68 C 303.33 460.71 274.73 458.18 246.07 456.28 C 230.35 455.71 214.71 453.98 199.01 453.15 C 191.63 452.24 184.09 452.72 176.80 451.21 C 174.92 445.69 175.44 439.75 175.36 434.02 C 175.57 423.99 173.74 414.07 173.40 404.07 C 173.18 398.03 172.21 392.05 172.33 386.00 C 172.60 366.94 169.24 348.05 169.26 328.99 C 169.15 324.01 168.43 319.06 168.40 314.07 C 168.31 302.01 166.23 290.06 166.27 278.00 C 165.96 271.01 165.17 264.04 165.32 257.03 C 164.16 239.04 162.06 221.07 162.32 203.01 C 161.31 189.02 159.95 175.05 159.35 161.03 C 159.87 138.46 155.08 116.09 156.37 93.52 M 157.96 93.98 C 156.97 99.97 158.62 105.95 158.62 111.95 C 158.67 118.30 159.63 124.61 159.65 130.96 C 159.24 143.71 161.55 156.32 161.89 169.04 C 163.32 179.20 161.99 189.48 163.23 199.65 C 164.20 209.23 164.62 218.85 165.43 228.45 C 166.01 236.44 165.34 244.48 166.31 252.45 C 167.16 266.96 168.81 281.44 168.92 295.99 C 169.38 311.70 171.11 327.33 171.99 343.01 C 173.42 353.12 171.86 363.36 173.27 373.47 C 174.60 388.95 175.90 404.46 175.69 420.01 C 176.41 429.60 177.51 439.17 178.00 448.78 C 181.01 451.27 185.43 449.93 189.05 450.41 C 211.23 452.10 233.42 453.70 255.60 455.56 C 259.50 455.91 263.41 455.42 267.31 455.83 C 293.86 457.86 320.43 459.83 346.97 462.10 C 368.38 462.91 389.72 464.76 411.08 466.27 C 433.09 467.59 455.08 469.21 477.07 470.89 C 497.04 472.76 517.11 473.03 537.07 474.98 C 551.69 476.11 566.28 477.43 580.91 478.49 C 586.26 479.11 591.67 478.35 597.02 479.07 C 627.02 481.42 657.03 483.49 687.05 485.45 C 706.71 486.83 726.32 488.93 746.03 489.43 C 754.35 490.27 762.70 490.59 771.03 491.35 C 778.65 491.54 786.21 493.13 793.83 492.94 C 793.92 485.96 793.95 478.92 795.12 472.02 C 798.36 429.63 802.86 387.32 806.43 344.94 C 810.29 302.30 814.56 259.69 818.02 217.00 C 818.61 208.76 819.93 200.56 819.75 192.27 C 821.47 171.16 823.62 150.07 825.43 128.96 C 825.72 124.33 826.98 119.68 826.09 115.04 C 818.09 114.22 810.04 114.94 802.03 114.51 C 794.25 113.62 786.41 113.50 778.59 113.42 C 771.35 114.29 764.20 112.25 756.96 112.68 C 749.86 112.40 742.73 113.00 735.67 112.23 C 725.63 111.24 715.52 111.53 705.46 111.38 C 692.71 109.71 679.80 111.41 667.05 109.83 C 658.74 109.55 650.43 109.52 642.12 109.50 C 629.81 107.86 617.34 109.44 605.02 108.01 C 595.73 107.44 586.41 107.89 577.13 107.47 C 566.82 106.42 556.45 106.90 546.12 106.48 C 535.80 105.63 525.44 105.82 515.11 105.50 C 508.08 104.86 501.03 104.94 494.00 104.69 C 482.32 104.78 470.69 103.58 459.02 103.66 C 451.97 103.92 445.01 102.48 437.96 102.91 C 429.96 102.51 421.92 103.02 413.95 102.03 C 402.33 101.46 390.66 102.14 379.07 100.94 C 364.03 100.95 349.03 100.15 334.01 99.70 C 320.99 99.87 308.00 98.51 294.98 98.65 C 283.97 98.44 272.98 97.53 261.97 97.64 C 246.55 97.45 231.15 96.07 215.73 96.43 C 196.50 95.00 177.18 95.55 157.96 93.98 Z" />
</g>
<g id="#97989cff">
<path fill="#97989c" opacity="1.00" d=" M 918.91 194.74 C 920.23 184.05 920.90 173.25 923.01 162.67 C 923.92 168.10 922.52 173.50 922.00 178.89 C 920.41 195.22 918.53 211.52 916.55 227.81 C 915.15 235.31 915.19 242.96 914.33 250.52 C 911.97 269.05 910.16 287.64 908.09 306.20 C 907.47 314.18 906.33 322.11 904.85 329.98 C 900.87 363.95 897.81 398.02 893.75 431.98 C 891.71 443.94 890.95 456.07 889.29 468.08 C 888.40 493.99 877.26 519.55 858.46 537.47 C 849.40 545.81 839.02 552.83 827.71 557.72 C 820.17 560.22 812.99 564.78 804.84 564.78 C 814.27 561.47 823.83 558.41 832.73 553.79 C 856.33 541.91 875.44 520.67 883.16 495.23 C 886.86 481.35 887.21 466.91 888.98 452.72 C 892.48 429.25 894.57 405.59 897.30 382.01 C 902.46 346.82 905.24 311.34 909.40 276.03 C 911.95 248.86 916.32 221.91 918.91 194.74 Z" />
</g>
<g id="#fefefeff">
</g>
<g id="#97979aff">
<path fill="#97979a" opacity="1.00" d=" M 79.34 377.65 C 82.36 402.29 83.16 427.22 87.49 451.71 C 88.89 458.95 89.11 466.35 90.54 473.59 C 93.11 484.92 94.75 496.63 99.67 507.27 C 101.20 510.25 102.99 513.59 106.29 514.87 C 110.26 516.29 114.53 516.31 118.68 516.69 C 147.79 519.22 176.91 521.70 206.03 524.08 C 228.59 526.41 251.25 527.50 273.83 529.59 C 321.22 533.54 368.56 538.04 415.97 541.75 C 436.93 542.59 457.74 545.34 478.66 546.70 C 506.42 549.44 534.23 551.59 562.00 554.14 C 570.88 554.88 579.81 554.76 588.68 555.71 C 625.02 559.10 661.43 561.78 697.75 565.39 C 707.80 566.10 717.84 567.08 727.84 568.34 C 732.21 568.92 736.62 568.70 741.02 568.71 C 755.04 569.61 769.19 569.93 783.19 568.43 C 790.19 567.62 796.97 565.58 804.00 564.97 C 797.69 568.57 790.22 568.53 783.20 569.31 C 773.50 570.13 763.78 571.90 754.01 571.03 C 728.59 570.46 703.42 565.86 677.98 565.54 C 665.70 564.40 653.43 563.27 641.14 562.40 C 618.36 559.83 595.45 558.54 572.64 556.22 C 544.44 553.71 516.22 551.45 488.01 549.04 C 480.07 548.17 472.06 548.20 464.11 547.43 C 444.69 545.53 425.19 544.40 405.79 542.21 C 387.15 540.61 368.47 539.38 349.85 537.52 C 323.88 536.27 298.02 533.52 272.11 531.44 C 249.41 529.67 226.79 527.00 204.04 525.94 C 173.31 523.50 142.60 520.65 111.88 518.09 C 108.54 517.78 104.91 517.08 102.76 514.24 C 95.84 506.22 94.14 495.34 91.70 485.39 C 89.73 478.46 89.51 471.22 87.97 464.22 C 85.72 453.39 84.85 442.34 83.70 431.36 C 82.08 416.23 80.94 401.06 79.44 385.92 C 79.21 383.16 79.24 380.40 79.34 377.65 Z" />
</g>
</svg>
